# This file uses centimeters as units for non-parametric coordinates.

mtllib debris.mtl
g default
v -0.246095 -0.607552 0.568789
v 1.340505 -0.607552 0.568789
v -0.246095 0.607552 0.568789
v 1.340505 0.607552 0.568789
v -1.155491 0.607552 -1.891299
v 2.249901 0.607552 -1.891299
v -1.155491 -0.607552 -1.891299
v 2.249901 -0.607552 -1.891299
vt 0.375000 0.000000
vt 0.625000 0.000000
vt 0.375000 0.250000
vt 0.625000 0.250000
vt 0.375000 0.500000
vt 0.625000 0.500000
vt 0.375000 0.750000
vt 0.625000 0.750000
vt 0.375000 1.000000
vt 0.625000 1.000000
vt 0.875000 0.000000
vt 0.875000 0.250000
vt 0.125000 0.000000
vt 0.125000 0.250000
vn 0.000000 0.000000 1.000000
vn 0.000000 0.000000 1.000000
vn 0.000000 0.000000 1.000000
vn 0.000000 0.000000 1.000000
vn 0.000000 1.000000 0.000000
vn 0.000000 1.000000 0.000000
vn 0.000000 1.000000 0.000000
vn 0.000000 1.000000 0.000000
vn 0.000000 0.000000 -1.000000
vn 0.000000 0.000000 -1.000000
vn 0.000000 0.000000 -1.000000
vn 0.000000 0.000000 -1.000000
vn 0.000000 -1.000000 -0.000000
vn 0.000000 -1.000000 -0.000000
vn 0.000000 -1.000000 -0.000000
vn 0.000000 -1.000000 -0.000000
vn 0.937966 0.000000 0.346728
vn 0.937966 0.000000 0.346728
vn 0.937966 0.000000 0.346728
vn 0.937966 0.000000 0.346728
vn -0.937966 0.000000 0.346728
vn -0.937966 0.000000 0.346728
vn -0.937966 0.000000 0.346728
vn -0.937966 0.000000 0.346728
s off
g pCube2
usemtl rock1SG
f 1/1/1 2/2/2 4/4/3 3/3/4
f 3/3/5 4/4/6 6/6/7 5/5/8
f 5/5/9 6/6/10 8/8/11 7/7/12
f 7/7/13 8/8/14 2/10/15 1/9/16
f 2/2/17 8/11/18 6/12/19 4/4/20
f 7/13/21 1/1/22 3/3/23 5/14/24
g default
v -3.516390 -0.607552 -2.560672
v -4.436118 -0.607552 -1.267846
v -3.516390 0.607552 -2.560672
v -4.436118 0.607552 -1.267846
v -0.984647 0.607552 -1.875608
v -2.958702 0.607552 0.899243
v -0.984647 -0.607552 -1.875608
v -2.958702 -0.607552 0.899243
vt 0.375000 0.000000
vt 0.625000 0.000000
vt 0.375000 0.250000
vt 0.625000 0.250000
vt 0.375000 0.500000
vt 0.625000 0.500000
vt 0.375000 0.750000
vt 0.625000 0.750000
vt 0.375000 1.000000
vt 0.625000 1.000000
vt 0.875000 0.000000
vt 0.875000 0.250000
vt 0.125000 0.000000
vt 0.125000 0.250000
vn -0.814841 0.000000 -0.579685
vn -0.814841 0.000000 -0.579685
vn -0.814841 0.000000 -0.579685
vn -0.814841 0.000000 -0.579685
vn -0.000000 1.000000 -0.000000
vn -0.000000 1.000000 -0.000000
vn -0.000000 1.000000 -0.000000
vn -0.000000 1.000000 -0.000000
vn 0.814841 0.000000 0.579685
vn 0.814841 0.000000 0.579685
vn 0.814841 0.000000 0.579685
vn 0.814841 0.000000 0.579685
vn 0.000000 -1.000000 0.000000
vn 0.000000 -1.000000 0.000000
vn 0.000000 -1.000000 0.000000
vn 0.000000 -1.000000 0.000000
vn -0.826253 0.000000 0.563299
vn -0.826253 0.000000 0.563299
vn -0.826253 0.000000 0.563299
vn -0.826253 0.000000 0.563299
vn 0.261197 0.000000 -0.965286
vn 0.261197 0.000000 -0.965286
vn 0.261197 0.000000 -0.965286
vn 0.261197 0.000000 -0.965286
s off
g pCube3
usemtl rock1SG
f 9/15/25 10/16/26 12/18/27 11/17/28
f 11/17/29 12/18/30 14/20/31 13/19/32
f 13/19/33 14/20/34 16/22/35 15/21/36
f 15/21/37 16/22/38 10/24/39 9/23/40
f 10/16/41 16/25/42 14/26/43 12/18/44
f 15/27/45 9/15/46 11/17/47 13/28/48
g default
v 0.021733 -0.607552 3.279468
v 0.571979 -0.607552 1.791338
v 0.021733 0.607552 3.279468
v 0.571979 0.607552 1.791338
v -2.601058 0.607552 3.279245
v -1.420042 0.607552 0.085205
v -2.601058 -0.607552 3.279245
v -1.420042 -0.607552 0.085205
vt 0.375000 0.000000
vt 0.625000 0.000000
vt 0.375000 0.250000
vt 0.625000 0.250000
vt 0.375000 0.500000
vt 0.625000 0.500000
vt 0.375000 0.750000
vt 0.625000 0.750000
vt 0.375000 1.000000
vt 0.625000 1.000000
vt 0.875000 0.000000
vt 0.875000 0.250000
vt 0.125000 0.000000
vt 0.125000 0.250000
vn 0.937936 0.000000 0.346808
vn 0.937936 0.000000 0.346808
vn 0.937936 0.000000 0.346808
vn 0.937936 0.000000 0.346808
vn 0.000000 1.000000 0.000000
vn 0.000000 1.000000 0.000000
vn 0.000000 1.000000 0.000000
vn 0.000000 1.000000 0.000000
vn -0.937936 0.000000 -0.346808
vn -0.937936 0.000000 -0.346808
vn -0.937936 0.000000 -0.346808
vn -0.937936 0.000000 -0.346808
vn -0.000000 -1.000000 -0.000000
vn -0.000000 -1.000000 -0.000000
vn -0.000000 -1.000000 -0.000000
vn -0.000000 -1.000000 -0.000000
vn 0.650503 0.000000 -0.759504
vn 0.650503 0.000000 -0.759504
vn 0.650503 0.000000 -0.759504
vn 0.650503 0.000000 -0.759504
vn -0.000085 0.000000 1.000000
vn -0.000085 0.000000 1.000000
vn -0.000085 0.000000 1.000000
vn -0.000085 0.000000 1.000000
s off
g pCube4
usemtl blinn1SG
f 17/29/49 18/30/50 20/32/51 19/31/52
f 19/31/53 20/32/54 22/34/55 21/33/56
f 21/33/57 22/34/58 24/36/59 23/35/60
f 23/35/61 24/36/62 18/38/63 17/37/64
f 18/30/65 24/39/66 22/40/67 20/32/68
f 23/41/69 17/29/70 19/31/71 21/42/72
g default
v 0.833021 -0.974294 3.131105
v 1.714840 -0.974294 3.550033
v 0.833021 1.485795 3.131105
v 1.714840 1.485795 3.550033
v 3.116277 1.485795 -1.675018
v 3.998096 1.485795 -1.256090
v 3.116277 -0.974294 -1.675018
v 3.998096 -0.974294 -1.256090
vt 0.375000 0.000000
vt 0.625000 0.000000
vt 0.375000 0.250000
vt 0.625000 0.250000
vt 0.375000 0.500000
vt 0.625000 0.500000
vt 0.375000 0.750000
vt 0.625000 0.750000
vt 0.375000 1.000000
vt 0.625000 1.000000
vt 0.875000 0.000000
vt 0.875000 0.250000
vt 0.125000 0.000000
vt 0.125000 0.250000
vn -0.429110 0.000000 0.903252
vn -0.429110 0.000000 0.903252
vn -0.429110 0.000000 0.903252
vn -0.429110 0.000000 0.903252
vn 0.000000 1.000000 0.000000
vn 0.000000 1.000000 0.000000
vn 0.000000 1.000000 0.000000
vn 0.000000 1.000000 0.000000
vn 0.429110 0.000000 -0.903252
vn 0.429110 0.000000 -0.903252
vn 0.429110 0.000000 -0.903252
vn 0.429110 0.000000 -0.903252
vn 0.000000 -1.000000 0.000000
vn 0.000000 -1.000000 0.000000
vn 0.000000 -1.000000 0.000000
vn 0.000000 -1.000000 0.000000
vn 0.903252 0.000000 0.429110
vn 0.903252 0.000000 0.429110
vn 0.903252 0.000000 0.429110
vn 0.903252 0.000000 0.429110
vn -0.903252 0.000000 -0.429110
vn -0.903252 0.000000 -0.429110
vn -0.903252 0.000000 -0.429110
vn -0.903252 0.000000 -0.429110
s off
g pCube5
usemtl blinn1SG
f 25/43/73 26/44/74 28/46/75 27/45/76
f 27/45/77 28/46/78 30/48/79 29/47/80
f 29/47/81 30/48/82 32/50/83 31/49/84
f 31/49/85 32/50/86 26/52/87 25/51/88
f 26/44/89 32/53/90 30/54/91 28/46/92
f 31/55/93 25/43/94 27/45/95 29/56/96
g default
v -0.723076 -0.087281 -5.452033
v -0.747312 -0.960499 -5.016136
v -0.740953 1.695306 -1.882028
v -0.765190 0.822088 -1.446131
v 1.160745 1.656860 -1.853308
v 1.136509 0.783641 -1.417411
v 1.178623 -0.125727 -5.423313
v 1.154386 -0.998946 -4.987416
vt 0.375000 0.000000
vt 0.625000 0.000000
vt 0.375000 0.250000
vt 0.625000 0.250000
vt 0.375000 0.500000
vt 0.625000 0.500000
vt 0.375000 0.750000
vt 0.625000 0.750000
vt 0.375000 1.000000
vt 0.625000 1.000000
vt 0.875000 0.000000
vt 0.875000 0.250000
vt 0.125000 0.000000
vt 0.125000 0.250000
vn -0.999682 0.020210 -0.015098
vn -0.999682 0.020210 -0.015098
vn -0.999682 0.020210 -0.015098
vn -0.999682 0.020210 -0.015098
vn -0.004480 0.446725 0.894660
vn -0.004480 0.446725 0.894660
vn -0.004480 0.446725 0.894660
vn -0.004480 0.446725 0.894660
vn 0.999682 -0.020210 0.015098
vn 0.999682 -0.020210 0.015098
vn 0.999682 -0.020210 0.015098
vn 0.999682 -0.020210 0.015098
vn 0.004480 -0.446725 -0.894660
vn 0.004480 -0.446725 -0.894660
vn 0.004480 -0.446725 -0.894660
vn 0.004480 -0.446725 -0.894660
vn -0.024826 -0.894443 0.446492
vn -0.024826 -0.894443 0.446492
vn -0.024826 -0.894443 0.446492
vn -0.024826 -0.894443 0.446492
vn 0.024826 0.894443 -0.446492
vn 0.024826 0.894443 -0.446492
vn 0.024826 0.894443 -0.446492
vn 0.024826 0.894443 -0.446492
s off
g pCube6
usemtl blinn1SG
f 33/57/97 34/58/98 36/60/99 35/59/100
f 35/59/101 36/60/102 38/62/103 37/61/104
f 37/61/105 38/62/106 40/64/107 39/63/108
f 39/63/109 40/64/110 34/66/111 33/65/112
f 34/58/113 40/67/114 38/68/115 36/60/116
f 39/69/117 33/57/118 35/59/119 37/70/120
g default
v -3.069157 0.498303 3.628528
v -3.085391 -0.477823 3.633024
v -2.032950 0.470794 1.397485
v -2.049184 -0.505332 1.401981
v -3.188446 0.487539 0.860609
v -3.204680 -0.488587 0.865105
v -4.224653 0.515047 3.091652
v -4.240887 -0.461078 3.096148
vt 0.375000 0.000000
vt 0.625000 0.000000
vt 0.375000 0.250000
vt 0.625000 0.250000
vt 0.375000 0.500000
vt 0.625000 0.500000
vt 0.375000 0.750000
vt 0.625000 0.750000
vt 0.375000 1.000000
vt 0.625000 1.000000
vt 0.875000 0.000000
vt 0.875000 0.250000
vt 0.125000 0.000000
vt 0.125000 0.250000
vn 0.906812 -0.013141 0.421331
vn 0.906812 -0.013141 0.421331
vn 0.906812 -0.013141 0.421331
vn 0.906812 -0.013141 0.421331
vn 0.421207 -0.011182 -0.906895
vn 0.421207 -0.011182 -0.906895
vn 0.421207 -0.011182 -0.906895
vn 0.421207 -0.011182 -0.906895
vn -0.906812 0.013141 -0.421331
vn -0.906812 0.013141 -0.421331
vn -0.906812 0.013141 -0.421331
vn -0.906812 0.013141 -0.421331
vn -0.421207 0.011182 0.906895
vn -0.421207 0.011182 0.906895
vn -0.421207 0.011182 0.906895
vn -0.421207 0.011182 0.906895
vn -0.016629 -0.999851 0.004605
vn -0.016629 -0.999851 0.004605
vn -0.016629 -0.999851 0.004605
vn -0.016629 -0.999851 0.004605
vn 0.016629 0.999851 -0.004605
vn 0.016629 0.999851 -0.004605
vn 0.016629 0.999851 -0.004605
vn 0.016629 0.999851 -0.004605
s off
g pCube7
usemtl blinn1SG
f 41/71/121 42/72/122 44/74/123 43/73/124
f 43/73/125 44/74/126 46/76/127 45/75/128
f 45/75/129 46/76/130 48/78/131 47/77/132
f 47/77/133 48/78/134 42/80/135 41/79/136
f 42/72/137 48/81/138 46/82/139 44/74/140
f 47/83/141 41/71/142 43/73/143 45/84/144
g default
v 0.860706 1.330085 1.039498
v 0.850036 0.688530 1.042453
v -0.793625 1.349213 -0.781177
v -0.804294 0.707658 -0.778222
v -2.422496 1.383121 0.699230
v -2.433166 0.741566 0.702184
v -0.768166 1.363993 2.519905
v -0.778835 0.722438 2.522860
vt 0.375000 0.000000
vt 0.625000 0.000000
vt 0.375000 0.250000
vt 0.625000 0.250000
vt 0.375000 0.500000
vt 0.625000 0.500000
vt 0.375000 0.750000
vt 0.625000 0.750000
vt 0.375000 1.000000
vt 0.625000 1.000000
vt 0.875000 0.000000
vt 0.875000 0.250000
vt 0.125000 0.000000
vt 0.125000 0.250000
vn 0.739939 -0.015403 -0.672497
vn 0.739939 -0.015403 -0.672497
vn 0.739939 -0.015403 -0.672497
vn 0.739939 -0.015403 -0.672497
vn -0.672468 0.007775 -0.740085
vn -0.672468 0.007775 -0.740085
vn -0.672468 0.007775 -0.740085
vn -0.672468 0.007775 -0.740085
vn -0.739939 0.015403 0.672497
vn -0.739939 0.015403 0.672497
vn -0.739939 0.015403 0.672497
vn -0.739939 0.015403 0.672497
vn 0.672468 -0.007775 0.740085
vn 0.672468 -0.007775 0.740085
vn 0.672468 -0.007775 0.740085
vn 0.672468 -0.007775 0.740085
vn -0.016629 -0.999851 0.004605
vn -0.016629 -0.999851 0.004605
vn -0.016629 -0.999851 0.004605
vn -0.016629 -0.999851 0.004605
vn 0.016629 0.999851 -0.004605
vn 0.016629 0.999851 -0.004605
vn 0.016629 0.999851 -0.004605
vn 0.016629 0.999851 -0.004605
s off
g pCube8
usemtl rock1SG
f 49/85/145 50/86/146 52/88/147 51/87/148
f 51/87/149 52/88/150 54/90/151 53/89/152
f 53/89/153 54/90/154 56/92/155 55/91/156
f 55/91/157 56/92/158 50/94/159 49/93/160
f 50/86/161 56/95/162 54/96/163 52/88/164
f 55/97/165 49/85/166 51/87/167 53/98/168
